# xmcd CD database file
#
# Track frame offsets:
#	150
#	14440
#	27052
#	43226
#	54856
#	69888
#	85162
#	96547
#	136127
#	150781
#	163455
#	173567
#	185896
#	201010
#	211604
#	225041
#	240511
#	256775
#	267862
#	281792
#
# Disc length: 3913 seconds
#
# Revision: 0
# Processed by: cddbd v1.5.2PL0 Copyright (c) Steve Scherf et al.
# Submitted via: CDex 1.51
#
DISCID=fe0f4714
DTITLE=Benny Goodman - Killer Diller, Vol 1
DYEAR=2004
DGENRE=Jazz
TTITLE0=01. King Porter Stomp
TTITLE1=02. After You've Gone
TTITLE2=03. Christopher Columbus
TTITLE3=04. Breakin' In A Pair Of Shoes
TTITLE4=05. Dizzy Spells
TTITLE5=06. I Must Have That Man
TTITLE6=07. My Honey's Lovin' Arms
TTITLE7=08. Sing Sing Sing
TTITLE8=09. Stompin' At The Savoy
TTITLE9=10. Sugar Foot Stomp
TTITLE10=11. Farewell Blues
TTITLE11=12. I'm A Ding Dong Daddy
TTITLE12=13. Don't Be That Way
TTITLE13=14. Dear Old Southland
TTITLE14=15. Jam Session
TTITLE15=16. The Man I Love
TTITLE16=17. Time On My Hands
TTITLE17=18. The Henderson Stomp
TTITLE18=19. Killer Diller
TTITLE19=20. Limehouse Blues
EXTD=YEAR: 2004
EXTT0=
EXTT1=
EXTT2=
EXTT3=
EXTT4=
EXTT5=
EXTT6=
EXTT7=
EXTT8=
EXTT9=
EXTT10=
EXTT11=
EXTT12=
EXTT13=
EXTT14=
EXTT15=
EXTT16=
EXTT17=
EXTT18=
EXTT19=
PLAYORDER=
